<?xml version="1.0" encoding="utf-8"?>
<!-- Generator: Adobe Illustrator 16.0.3, SVG Export Plug-In . SVG Version: 6.00 Build 0)  -->
<!DOCTYPE svg PUBLIC "-//W3C//DTD SVG 1.1//EN" "http://www.w3.org/Graphics/SVG/1.1/DTD/svg11.dtd">
<svg version="1.1" id="Layer_1" xmlns="http://www.w3.org/2000/svg" xmlns:xlink="http://www.w3.org/1999/xlink" x="0px" y="0px"
	 width="65px" height="65px" viewBox="223.5 223.5 65 65" enable-background="new 223.5 223.5 65 65" xml:space="preserve">
<g>
	<path fill="#FFFFFF" d="M260.978,268.175c6.186-0.729,12.768-2.979,12.768-13.666c0-3.036-1.071-5.512-2.812-7.425
		c0.28-0.73,1.18-3.486-0.34-7.311c0,0-2.251-0.731-7.535,2.812c-2.249-0.618-4.726-1.012-7.03-1.012
		c-2.363,0-4.838,0.395-7.032,1.012c-5.342-3.542-7.592-2.812-7.592-2.812c-1.519,3.824-0.619,6.58-0.337,7.311
		c-1.744,1.913-2.812,4.389-2.812,7.425c0,10.687,6.58,12.938,12.767,13.666c-0.788,0.678-1.519,1.971-1.799,3.771
		c-1.576,0.674-5.682,1.968-8.156-2.306c0,0-1.463-2.645-4.218-2.812c0,0-2.756-0.057-0.225,1.687c0,0,1.855,0.845,3.093,4.049
		c0,0,1.687,5.344,9.448,3.656v4.78c0,0.733-0.562,1.575-1.968,1.351c-11.024-3.656-18.954-14.117-18.954-26.378
		c0-15.355,12.429-27.784,27.785-27.784c15.298,0,27.783,12.43,27.729,27.784c0,12.261-7.931,22.665-18.954,26.378
		c-1.407,0.281-1.969-0.561-1.969-1.351v-7.705C262.834,270.706,261.989,269.021,260.978,268.175L260.978,268.175z M287.75,256.028
		c0-17.549-14.229-31.778-31.722-31.778c-17.549,0-31.778,14.229-31.778,31.778c0,17.492,14.229,31.722,31.778,31.722
		C273.521,287.75,287.75,273.521,287.75,256.028L287.75,256.028z"/>
</g>
</svg>
